<?xml version="1.0" standalone="no"?>
<!DOCTYPE svg PUBLIC "-//W3C//DTD SVG 20010904//EN"
 "http://www.w3.org/TR/2001/REC-SVG-20010904/DTD/svg10.dtd">
<svg version="1.0" xmlns="http://www.w3.org/2000/svg"
 width="48.000000pt" height="48.000000pt" viewBox="0 0 48.000000 48.000000"
 preserveAspectRatio="xMidYMid meet">
<metadata>
Created by potrace 1.16, written by Peter Selinger 2001-2019
</metadata>
<g transform="translate(0.000000,48.000000) scale(0.100000,-0.100000)"
fill="#000000" stroke="none">
<path d="M52 473 c-16 -3 -21 -10 -18 -21 4 -17 20 -154 32 -286 l6 -68 29 4
c26 4 28 3 14 -12 -8 -9 -15 -21 -15 -27 0 -14 111 -63 142 -63 28 0 124 36
148 56 8 6 24 14 35 16 14 2 20 11 20 28 0 19 -7 26 -32 33 -40 12 -83 2 -83
-19 0 -9 -5 -14 -12 -12 -42 14 5 63 78 79 31 7 58 19 61 27 3 7 -2 72 -12
143 l-18 129 -176 -1 c-97 -1 -186 -4 -199 -6z m89 -107 c14 -3 38 -17 54 -32
19 -18 34 -24 49 -19 11 3 55 8 98 11 l76 5 7 -31 c4 -17 4 -34 1 -37 -6 -6
-291 -72 -312 -73 -13 0 -19 30 -30 133 -6 65 -6 68 12 58 11 -5 31 -12 45
-15z"/>
</g>
</svg>
